<svg viewBox="0 0 392.49 390.69" xmlns="http://www.w3.org/2000/svg"><path d="m383.9 162h-184.21v-159.81q4-.19 8.16-.19a176.87 176.87 0 0 1 176.05 160z" fill="#fff"/><path d="m355.38 210a176.83 176.83 0 0 1 -95.72 157.18l-.15.07a176.88 176.88 0 1 1 -157.79-316.58l.15-.07a175.93 175.93 0 0 1 72.82-17.4v157.8h179.68a177.9 177.9 0 0 1 1.01 19z" fill="#f3aa9f"/><path d="m357.53 212.16a176 176 0 0 1 -17.44 76.66 1 1 0 0 1 -.07.15 176.89 176.89 0 0 1 -266.55 63.82l1.23.38q6 1.86 12.26 3.29a177 177 0 0 0 216.53-165.46h52.78a178.15 178.15 0 0 1 1.26 21.16z" fill="#e1978f"/><path d="m182.85 390.69a182.87 182.87 0 0 1 -84-345.31l.41-.2a180.59 180.59 0 0 1 75.13-20l6.27-.28v160.1h183.7l.51 5.44c.54 5.77.82 11.62.82 17.4a180.72 180.72 0 0 1 -20.18 83.56c-.06.12-.12.26-.2.41a184.39 184.39 0 0 1 -83 80.77l-.18.08a181.06 181.06 0 0 1 -79.28 18.03zm-78.52-334.61a170.88 170.88 0 0 0 152.57 305.77l.17-.08a172.34 172.34 0 0 0 77.5-75.38l.15-.29a168.84 168.84 0 0 0 18.93-78.23c0-3.6-.11-7.23-.34-10.84h-184.62v-159.45a168.41 168.41 0 0 0 -64.07 18.35z" fill="#426572"/><path d="m382.9 158h-73.79c-2.89-46.4-18.43-98.49-36.89-144.29l1.33.51a177.49 177.49 0 0 1 92.51 83.56 175.63 175.63 0 0 1 16.84 60.22z" fill="#e1d2d5"/><path d="m392.49 172h-196.8v-171.53l5.71-.27c2.71-.13 5.6-.2 8.45-.2a182.87 182.87 0 0 1 182 165.44zm-184.8-12h171.49a170.89 170.89 0 0 0 -169.33-148h-2.16z" fill="#426572"/><text fill="#426572" font-family="Dosis-ExtraBold, Dosis" font-size="100.43" font-weight="700" transform="translate(232.67 133.93)">%</text><g fill="#fff"><path d="m101.22 81.14a166.34 166.34 0 0 1 34.83-18c3.58-1.34 2-7.14-1.6-5.79a172.89 172.89 0 0 0 -36.26 18.65c-3.18 2.15-.18 7.35 3 5.18z"/><path d="m36.28 166.34c2.62-8.63 6.74-16.94 11.05-24.83a180.58 180.58 0 0 1 40.53-50.17c2.93-2.52-1.33-6.75-4.24-4.24-23.3 20.06-44.07 47.84-53.12 77.65-1.12 3.7 4.67 5.29 5.79 1.6z"/></g></svg>