<svg viewBox="0 0 63.58 52.68" xmlns="http://www.w3.org/2000/svg"><path d="m27.15 44.23h4.23v2.92h-4.23z" fill="#c9d2df" opacity=".4"/><path d="m31.38 52.68a.53.53 0 0 1 -.53-.53v-7.92a.53.53 0 0 1 1.06 0v7.92a.53.53 0 0 1 -.53.53z" fill="#3e3126"/><path d="m27.2 52.68a.53.53 0 0 1 -.53-.53v-7.92a.54.54 0 0 1 .33-.68.53.53 0 0 1 .67.68v7.92a.52.52 0 0 1 -.47.53z" fill="#3e3126"/><path d="m3.5 18v-12.7h56.59v35.81a3.4 3.4 0 0 1 -3.4 3.39h-47.91a5.72 5.72 0 0 1 -5.73-5.71v-.14z" fill="#fff"/><path d="m60 23.07a34.23 34.23 0 0 1 -10.62 10.19.71.71 0 0 0 -.68-.5.72.72 0 0 0 -.54 1.24c-.83.47-1.67.92-2.53 1.33a2.17 2.17 0 0 0 -4 1.09 2 2 0 0 0 .08.55c-.87.32-1.75.6-2.65.87a2 2 0 0 0 -1.57-.65c-1 0-1.75.5-1.75 1.12a.75.75 0 0 0 .1.36 65.54 65.54 0 0 1 -32.72-1.67v1.61a5.72 5.72 0 0 0 5.59 5.89h48.05a3.4 3.4 0 0 0 3.4-3.39z" fill="#c9d2df" opacity=".4"/><path d="m4.05 5.05h55.76v5.2h-55.76z" fill="#c9d2df" opacity=".6"/><path d="m56.69 45h-37.12a.53.53 0 1 1 0-1.06h37.12a2.87 2.87 0 0 0 2.87-2.86v-35.25h-55.56v12.17a.53.53 0 1 1 -1 0v-12.7a.53.53 0 0 1 .53-.53h56.56a.53.53 0 0 1 .53.53v35.81a3.92 3.92 0 0 1 -3.93 3.89z" fill="#3e3126"/><path d="m14.28 45h-7.39a3.94 3.94 0 0 1 -3.89-3.89v-17.11a.53.53 0 0 1 .53-.53.53.53 0 0 1 .47.53v17.11a2.86 2.86 0 0 0 2.89 2.89h7.39a.53.53 0 1 1 0 1.06z" fill="#3e3126"/><path d="m18.27 14.21.79 1.62 1.79.26-1.29 1.25.3 1.78-1.59-.84-1.6.84.31-1.78-1.3-1.25 1.79-.26z" fill="#ff9c01"/><path d="m24.92 14.21.8 1.62 1.78.26-1.29 1.25.3 1.78-1.59-.84-1.6.84.31-1.78-1.29-1.25 1.78-.26z" fill="#ff9c01"/><path d="m31.57 14.21.8 1.62 1.78.26-1.29 1.25.3 1.78-1.59-.84-1.6.84.31-1.78-1.29-1.25 1.78-.26z" fill="#ff9c01"/><path d="m38.22 14.21.8 1.62 1.78.26-1.29 1.25.3 1.78-1.59-.84-1.6.84.31-1.78-1.29-1.25 1.78-.26z" fill="#ff9c01"/><path d="m44.87 14.21.8 1.62 1.78.26-1.29 1.25.3 1.78-1.59-.84-1.6.84.31-1.78-1.29-1.25 1.78-.26z" fill="#ff9c01"/><path d="m7 15.47h-.1a.24.24 0 0 1 -.14-.32l1.34-3.3a.27.27 0 0 1 .34-.14.26.26 0 0 1 .13.34l-1.37 3.26a.25.25 0 0 1 -.2.16z" fill="#3e3126"/><path d="m8.8 13.88h-.1a.24.24 0 0 1 -.14-.32l.75-1.76a.25.25 0 0 1 .47.19l-.78 1.76a.25.25 0 0 1 -.2.13z" fill="#3e3126"/><circle cx="16.96" cy="44.61" fill="#3e3126" r=".58"/><circle cx="3.5" cy="20.92" fill="#3e3126" r=".58"/><path d="m3.5.37h56.59a2.79 2.79 0 0 1 2.79 2.79 2.79 2.79 0 0 1 -2.79 2.84h-56.59a2.79 2.79 0 0 1 -2.79-2.84 2.79 2.79 0 0 1 2.79-2.79z" fill="#6ae184"/><g fill="#389d9c"><path d="m62.41 3.31a2.77 2.77 0 0 1 -.81 2 2.85 2.85 0 0 1 -2 .81l-57.6-.4c-.79 0-.68-1.26-1.18-1.72 23.76 1.41 53.71 2.59 60.36-3a2.77 2.77 0 0 1 1.23 2.31z"/><circle cx="52.8" cy="4.21" r=".85"/><circle cx="55.46" cy="3.66" r=".29"/><circle cx="50.22" cy="4.63" r=".42"/><circle cx="47.96" cy="3.93" opacity=".45" r=".28"/><circle cx="49.73" cy="3.07" opacity=".45" r=".5"/><circle cx="51.52" cy="2.07" opacity=".45" r=".43"/></g><circle cx="46.86" cy="32.76" fill="#c9d2df" opacity=".4" r=".39"/><circle cx="38.61" cy="34.37" fill="#c9d2df" opacity=".4" r=".58"/><circle cx="42.79" cy="32.1" fill="#c9d2df" opacity=".4" r=".27"/><rect fill="#c0ffcc" height="2.25" rx="1.12" width="17.84" x="1.27" y=".58"/><path d="m60.09 6.68h-56.59a3.32 3.32 0 0 1 -.36-6.63 2.16 2.16 0 0 1 .36 0h18.16a.53.53 0 0 1 .53.53.53.53 0 0 1 -.53.53h-18.16a2.26 2.26 0 0 0 0 4.52h56.59a2.26 2.26 0 0 0 0-4.52h-33.89a.53.53 0 0 1 -.53-.53.53.53 0 0 1 .53-.53h33.88a3.32 3.32 0 1 1 .37 6.63 2.29 2.29 0 0 1 -.37 0z" fill="#3e3126"/><circle cx="23.93" cy=".58" fill="#3e3126" r=".58"/><path d="m50.26 20.52a.29.29 0 0 1 -.3-.28v-13.61a.31.31 0 0 1 .29-.31.31.31 0 0 1 .31.31v13.59a.29.29 0 0 1 -.3.3z" fill="#3e3126"/><path d="m50.26 26.09a3 3 0 1 1 3-3 3 3 0 0 1 -3 3zm0-5.41a2.4 2.4 0 1 0 2.4 2.4 2.39 2.39 0 0 0 -2.39-2.39z" fill="#3e3126"/><rect fill="#c9d2df" height="1.55" rx=".28" width="19.82" x="24.66" y="22.64"/><rect fill="#c9d2df" height="1.55" rx=".28" width="19.82" x="24.66" y="26.16"/><rect fill="#c9d2df" height="1.55" rx=".28" width="19.82" x="24.66" y="29.68"/><path d="m20.83 27.66a1.75 1.75 0 0 0 -.38-.55 2.23 2.23 0 0 0 -.53-.38 3.68 3.68 0 0 0 -.57-.26l-.73-.3a1.77 1.77 0 0 1 -.55-.35.66.66 0 0 1 -.21-.51.83.83 0 0 1 .1-.41.61.61 0 0 1 .3-.27 1.21 1.21 0 0 1 .53-.09.93.93 0 0 1 .54.14 1.16 1.16 0 0 1 .4.36 2.6 2.6 0 0 1 .31.5l.86-.54a2.4 2.4 0 0 0 -.44-.65 2 2 0 0 0 -.7-.52 2.07 2.07 0 0 0 -.55-.17v-1h-.86v1a2.2 2.2 0 0 0 -.65.19 1.73 1.73 0 0 0 -.72.59 1.43 1.43 0 0 0 -.26.82 1.73 1.73 0 0 0 .16.78 1.91 1.91 0 0 0 .42.55 2.53 2.53 0 0 0 .55.37 5 5 0 0 0 .53.23c.25.09.48.19.7.29a1.87 1.87 0 0 1 .53.39.79.79 0 0 1 .21.58.89.89 0 0 1 -.11.48.67.67 0 0 1 -.32.3 1.28 1.28 0 0 1 -.55.1 1.33 1.33 0 0 1 -.67-.16 1.6 1.6 0 0 1 -.52-.45 4.37 4.37 0 0 1 -.45-.72l-.83.55a2.81 2.81 0 0 0 .56.88 2.78 2.78 0 0 0 .83.62 3.09 3.09 0 0 0 .59.18v1h.85v-1a2.42 2.42 0 0 0 .8-.23 1.7 1.7 0 0 0 .73-.65 2 2 0 0 0 .11-1.73z" fill="#42caf8"/></svg>